<mxfile host="app.diagrams.net" agent="Mozilla/5.0 (Windows NT 10.0; Win64; x64; rv:139.0) Gecko/20100101 Firefox/139.0" version="27.1.1">
  <diagram name="Page-1" id="Sf5nAqdpK_XMTyAdzcXt">
    <mxGraphModel dx="920" dy="515" grid="1" gridSize="10" guides="1" tooltips="1" connect="1" arrows="1" fold="1" page="1" pageScale="1" pageWidth="850" pageHeight="1100" math="0" shadow="0">
      <root>
        <mxCell id="0" />
        <mxCell id="1" parent="0" />
        <mxCell id="01yvska82QZ-e1UXaare-5" style="edgeStyle=orthogonalEdgeStyle;rounded=0;orthogonalLoop=1;jettySize=auto;html=1;exitX=0.75;exitY=1;exitDx=0;exitDy=0;entryX=0.5;entryY=0;entryDx=0;entryDy=0;" edge="1" parent="1" source="01yvska82QZ-e1UXaare-1" target="01yvska82QZ-e1UXaare-2">
          <mxGeometry relative="1" as="geometry" />
        </mxCell>
        <mxCell id="01yvska82QZ-e1UXaare-1" value="&lt;font style=&quot;font-size: 25px;&quot;&gt;Vue.js&lt;/font&gt;" style="rounded=0;whiteSpace=wrap;html=1;" vertex="1" parent="1">
          <mxGeometry x="200" y="380" width="500" height="60" as="geometry" />
        </mxCell>
        <mxCell id="01yvska82QZ-e1UXaare-2" value="&lt;font style=&quot;font-size: 25px;&quot;&gt;LocalStorage&lt;/font&gt;" style="rounded=0;whiteSpace=wrap;html=1;" vertex="1" parent="1">
          <mxGeometry x="460" y="460" width="240" height="60" as="geometry" />
        </mxCell>
        <mxCell id="01yvska82QZ-e1UXaare-3" value="&lt;font style=&quot;font-size: 25px;&quot;&gt;Tauri API&lt;/font&gt;" style="rounded=0;whiteSpace=wrap;html=1;" vertex="1" parent="1">
          <mxGeometry x="200" y="460" width="240" height="60" as="geometry" />
        </mxCell>
        <mxCell id="01yvska82QZ-e1UXaare-10" style="edgeStyle=orthogonalEdgeStyle;rounded=0;orthogonalLoop=1;jettySize=auto;html=1;exitX=0.5;exitY=1;exitDx=0;exitDy=0;entryX=0.5;entryY=0;entryDx=0;entryDy=0;" edge="1" parent="1" source="01yvska82QZ-e1UXaare-6" target="01yvska82QZ-e1UXaare-9">
          <mxGeometry relative="1" as="geometry" />
        </mxCell>
        <mxCell id="01yvska82QZ-e1UXaare-6" value="&lt;font style=&quot;font-size: 25px;&quot;&gt;ODBC&lt;/font&gt;" style="rounded=0;whiteSpace=wrap;html=1;" vertex="1" parent="1">
          <mxGeometry x="200" y="540" width="500" height="40" as="geometry" />
        </mxCell>
        <mxCell id="01yvska82QZ-e1UXaare-7" style="edgeStyle=orthogonalEdgeStyle;rounded=0;orthogonalLoop=1;jettySize=auto;html=1;exitX=0.5;exitY=1;exitDx=0;exitDy=0;entryX=0.24;entryY=-0.03;entryDx=0;entryDy=0;entryPerimeter=0;" edge="1" parent="1" source="01yvska82QZ-e1UXaare-3" target="01yvska82QZ-e1UXaare-6">
          <mxGeometry relative="1" as="geometry" />
        </mxCell>
        <mxCell id="01yvska82QZ-e1UXaare-8" style="edgeStyle=orthogonalEdgeStyle;rounded=0;orthogonalLoop=1;jettySize=auto;html=1;exitX=0.25;exitY=1;exitDx=0;exitDy=0;entryX=0.522;entryY=0.007;entryDx=0;entryDy=0;entryPerimeter=0;" edge="1" parent="1" source="01yvska82QZ-e1UXaare-1" target="01yvska82QZ-e1UXaare-3">
          <mxGeometry relative="1" as="geometry" />
        </mxCell>
        <mxCell id="01yvska82QZ-e1UXaare-9" value="" style="rounded=0;whiteSpace=wrap;html=1;" vertex="1" parent="1">
          <mxGeometry x="200" y="600" width="500" height="70" as="geometry" />
        </mxCell>
        <mxCell id="01yvska82QZ-e1UXaare-11" value="SQLite" style="shape=cylinder3;whiteSpace=wrap;html=1;boundedLbl=1;backgroundOutline=1;size=15;" vertex="1" parent="1">
          <mxGeometry x="250" y="605" width="80" height="60" as="geometry" />
        </mxCell>
        <mxCell id="01yvska82QZ-e1UXaare-12" value="SQLServer" style="shape=cylinder3;whiteSpace=wrap;html=1;boundedLbl=1;backgroundOutline=1;size=15;" vertex="1" parent="1">
          <mxGeometry x="580" y="605" width="80" height="60" as="geometry" />
        </mxCell>
        <mxCell id="01yvska82QZ-e1UXaare-13" value="Oracle SQL" style="shape=cylinder3;whiteSpace=wrap;html=1;boundedLbl=1;backgroundOutline=1;size=15;" vertex="1" parent="1">
          <mxGeometry x="470" y="605" width="80" height="60" as="geometry" />
        </mxCell>
        <mxCell id="01yvska82QZ-e1UXaare-14" value="PostgreSQL" style="shape=cylinder3;whiteSpace=wrap;html=1;boundedLbl=1;backgroundOutline=1;size=15;" vertex="1" parent="1">
          <mxGeometry x="360" y="605" width="80" height="60" as="geometry" />
        </mxCell>
      </root>
    </mxGraphModel>
  </diagram>
</mxfile>
